<svg preserveAspectRatio="none" width="100%" height="100%" overflow="visible" style="display: block;" viewBox="0 0 121.125 58.882" fill="none" xmlns="http://www.w3.org/2000/svg">
<g id="Logo">
<path id="F d" d="M4.07071 56.1656C6.40538 56.1656 8.08155 54.3697 8.08155 52.035V40.4215H19.5155C21.6107 40.4215 23.227 38.865 23.227 36.7698C23.227 34.7345 21.6705 33.1182 19.5155 33.1182H8.08155V23.2407H22.7481C24.8433 23.2407 26.4596 21.6244 26.4596 19.589C26.4596 17.4938 24.9032 15.9374 22.7481 15.9374H4.13057C1.73604 15.9374 0 17.6734 0 20.068V52.035C0 54.3697 1.67617 56.1656 4.07071 56.1656Z" fill="var(--fill-0, #181C2E)"/>
<circle id="Ellipse 1488" cx="103.461" cy="40.7267" r="13.7391" stroke="var(--stroke-0, #E8E8E8)" stroke-width="0.736025" stroke-linecap="round" stroke-linejoin="round" stroke-dasharray="0.99 2.96"/>
<path id="Ellipse 1470" d="M86.5372 41.7885C86.5372 49.2415 80.4954 55.2834 73.0424 55.2834C65.5894 55.2834 59.5476 49.2415 59.5476 41.7885C59.5476 34.3356 65.5894 28.2937 73.0424 28.2937C80.4954 28.2937 86.5372 34.3356 86.5372 41.7885ZM67.5297 41.7885C67.5297 44.8332 69.9978 47.3013 73.0424 47.3013C76.087 47.3013 78.5552 44.8332 78.5552 41.7885C78.5552 38.7439 76.087 36.2758 73.0424 36.2758C69.9978 36.2758 67.5297 38.7439 67.5297 41.7885Z" fill="var(--fill-0, #FF7622)"/>
<path id="Ellipse 1471" d="M55.4991 41.7885C55.4991 49.2415 49.4573 55.2834 42.0043 55.2834C34.5513 55.2834 28.5095 49.2415 28.5095 41.7885C28.5095 34.3356 34.5513 28.2937 42.0043 28.2937C49.4573 28.2937 55.4991 34.3356 55.4991 41.7885ZM36.4916 41.7885C36.4916 44.8332 38.9597 47.3013 42.0043 47.3013C45.0489 47.3013 47.5171 44.8332 47.5171 41.7885C47.5171 38.7439 45.0489 36.2758 42.0043 36.2758C38.9597 36.2758 36.4916 38.7439 36.4916 41.7885Z" fill="var(--fill-0, #FF7622)"/>
<path id="Line 1688 (Stroke)" fill-rule="evenodd" clip-rule="evenodd" d="M22.4984 51.2409C22.4984 50.9957 22.6971 50.797 22.9423 50.797H29.7015C29.9467 50.797 30.1454 50.9957 30.1454 51.2409C30.1454 51.486 29.9467 51.6848 29.7015 51.6848H22.9423C22.6971 51.6848 22.4984 51.486 22.4984 51.2409Z" fill="var(--fill-0, #FF7622)"/>
<path id="Line 1689 (Stroke)" fill-rule="evenodd" clip-rule="evenodd" d="M53.5772 51.2409C53.5772 50.9957 53.7759 50.797 54.0211 50.797H60.7804C61.0255 50.797 61.2243 50.9957 61.2243 51.2409C61.2243 51.486 61.0255 51.6848 60.7804 51.6848H54.0211C53.7759 51.6848 53.5772 51.486 53.5772 51.2409Z" fill="var(--fill-0, #FF7622)"/>
<path id="Line 1690 (Stroke)" fill-rule="evenodd" clip-rule="evenodd" d="M17.1004 54.8394C17.1004 54.5943 17.2991 54.3955 17.5443 54.3955L29.7015 54.3955C29.9466 54.3955 30.1454 54.5943 30.1454 54.8394C30.1454 55.0846 29.9466 55.2833 29.7015 55.2833L17.5443 55.2833C17.2991 55.2833 17.1004 55.0846 17.1004 54.8394Z" fill="var(--fill-0, #FF7622)"/>
<path id="Line 1691 (Stroke)" fill-rule="evenodd" clip-rule="evenodd" d="M48.1794 54.8394C48.1794 54.5943 48.3782 54.3955 48.6234 54.3955L60.7805 54.3955C61.0257 54.3955 61.2245 54.5943 61.2245 54.8394C61.2245 55.0846 61.0257 55.2833 60.7805 55.2833L48.6234 55.2833C48.3782 55.2833 48.1794 55.0846 48.1794 54.8394Z" fill="var(--fill-0, #FF7622)"/>
<path id="Line 1692 (Stroke)" fill-rule="evenodd" clip-rule="evenodd" d="M22.4984 58.4381C22.4984 58.1929 22.6971 57.9942 22.9423 57.9942L35.0994 57.9942C35.3446 57.9942 35.5434 58.1929 35.5434 58.4381C35.5434 58.6833 35.3446 58.882 35.0994 58.882L22.9423 58.882C22.6971 58.882 22.4984 58.6833 22.4984 58.4381Z" fill="var(--fill-0, #FF7622)"/>
<path id="Line 1693 (Stroke)" fill-rule="evenodd" clip-rule="evenodd" d="M53.5772 58.4381C53.5772 58.1929 53.7759 57.9942 54.0211 57.9942L66.1783 57.9942C66.4235 57.9942 66.6222 58.1929 66.6222 58.4381C66.6222 58.6833 66.4235 58.882 66.1783 58.882L54.0211 58.882C53.7759 58.882 53.5772 58.6833 53.5772 58.4381Z" fill="var(--fill-0, #FF7622)"/>
<path id="Ellipse 1476" d="M77.4543 26.7422C78.5383 26.7422 79.4264 25.8615 79.3269 24.7821C78.8713 19.8401 76.7036 15.1875 73.1653 11.6492C69.1624 7.64633 63.7333 5.39752 58.0723 5.39752C52.4114 5.39751 46.9822 7.64633 42.9793 11.6492C39.4411 15.1875 37.2733 19.8401 36.8177 24.7821C36.7182 25.8615 37.6064 26.7422 38.6903 26.7422L58.0723 26.7422H77.4543Z" fill="var(--fill-0, #FF7622)"/>
<path id="Ellipse 1477" d="M60.7712 3.92547C60.7712 5.55145 59.5629 6.86957 58.0724 6.86957C56.5819 6.86957 55.3736 5.55145 55.3736 3.92547C55.3736 2.29948 56.5819 0.981366 58.0724 0.981366C59.5629 0.981366 60.7712 2.29948 60.7712 3.92547Z" fill="var(--fill-0, white)"/>
<path id="Ellipse 1477 (Stroke)" fill-rule="evenodd" clip-rule="evenodd" d="M58.0724 1.96273C57.2026 1.96273 56.355 2.75935 56.355 3.92547C56.355 5.09158 57.2026 5.8882 58.0724 5.8882C58.9423 5.8882 59.7898 5.09158 59.7898 3.92547C59.7898 2.75935 58.9423 1.96273 58.0724 1.96273ZM54.3923 3.92547C54.3923 1.83962 55.9613 0 58.0724 0C60.1835 0 61.7525 1.83962 61.7525 3.92547C61.7525 6.01131 60.1835 7.85093 58.0724 7.85093C55.9613 7.85093 54.3923 6.01131 54.3923 3.92547Z" fill="var(--fill-0, #FF7622)"/>
<path id="Ellipse 1478" d="M49.3568 12.0222C49.1187 11.6268 48.6056 11.4947 48.2186 11.7462C45.2927 13.6475 42.9962 16.3541 41.6145 19.5294C41.4259 19.9627 41.6531 20.4572 42.0966 20.6203V20.6203C42.5344 20.7813 43.0181 20.5583 43.2061 20.1313C44.4459 17.3143 46.4829 14.9088 49.0722 13.2034C49.4644 12.9452 49.5989 12.4244 49.3568 12.0222V12.0222Z" fill="var(--fill-0, white)"/>
<path id="Ellipse 1479" d="M52.767 10.4995C52.6216 10.0611 52.1492 9.82012 51.7167 9.98203C51.2533 10.1555 50.7975 10.3479 50.3503 10.5586C49.926 10.7586 49.7718 11.2764 49.9964 11.6882V11.6882C50.2173 12.0934 50.7223 12.2433 51.1405 12.0481C51.4991 11.8807 51.8639 11.7264 52.234 11.5854C52.6706 11.4191 52.914 10.9429 52.767 10.4995V10.4995Z" fill="var(--fill-0, white)"/>
<g id="Group 3070">
<rect id="Rectangle 1569" x="111.802" y="15.2112" width="9.32298" height="40.236" rx="4.66149" fill="var(--fill-0, #181C2E)"/>
<path id="Ellipse 1489" d="M118.181 40.972C118.181 48.9665 111.7 55.4472 103.706 55.4472C95.7117 55.4472 89.2309 48.9665 89.2309 40.972C89.2309 32.9776 95.7117 26.4969 103.706 26.4969C111.7 26.4969 118.181 32.9776 118.181 40.972ZM97.7929 40.972C97.7929 44.2378 100.44 46.8853 103.706 46.8853C106.972 46.8853 109.619 44.2378 109.619 40.972C109.619 37.7063 106.972 35.0588 103.706 35.0588C100.44 35.0588 97.7929 37.7063 97.7929 40.972Z" fill="var(--fill-0, #181C2E)"/>
</g>
</g>
</svg>
